<?xml version="1.0" encoding="UTF-8" standalone="no"?>
<!-- Created with Inkscape (http://www.inkscape.org/) -->

<svg
   width="300mm"
   height="180mm"
   viewBox="0 0 300 180"
   version="1.1"
   id="svg2087"
   inkscape:version="1.1.2 (b8e25be833, 2022-02-05)"
   sodipodi:docname="spoilboard.svg"
   xmlns:inkscape="http://www.inkscape.org/namespaces/inkscape"
   xmlns:sodipodi="http://sodipodi.sourceforge.net/DTD/sodipodi-0.dtd"
   xmlns="http://www.w3.org/2000/svg"
   xmlns:svg="http://www.w3.org/2000/svg">
  <sodipodi:namedview
     id="namedview2089"
     pagecolor="#ffffff"
     bordercolor="#666666"
     borderopacity="1.0"
     inkscape:pageshadow="2"
     inkscape:pageopacity="0.0"
     inkscape:pagecheckerboard="0"
     inkscape:document-units="mm"
     showgrid="false"
     width="300mm"
     showguides="true"
     inkscape:guide-bbox="true"
     inkscape:zoom="0.69664703"
     inkscape:cx="359.57952"
     inkscape:cy="355.9909"
     inkscape:window-width="1920"
     inkscape:window-height="986"
     inkscape:window-x="-11"
     inkscape:window-y="-11"
     inkscape:window-maximized="1"
     inkscape:current-layer="layer1">
    <sodipodi:guide
       position="15,161.65"
       orientation="0,1"
       id="guide2091"
       inkscape:label=""
       inkscape:locked="false"
       inkscape:color="rgb(0,0,255)" />
    <sodipodi:guide
       position="15,153.15"
       orientation="0,1"
       id="guide2268"
       inkscape:label=""
       inkscape:locked="false"
       inkscape:color="rgb(0,0,255)" />
    <sodipodi:guide
       position="15,116.65"
       orientation="0,1"
       id="guide2270"
       inkscape:label=""
       inkscape:locked="false"
       inkscape:color="rgb(0,0,255)" />
    <sodipodi:guide
       position="15,108.15"
       orientation="0,1"
       id="guide2272"
       inkscape:label=""
       inkscape:locked="false"
       inkscape:color="rgb(0,0,255)" />
    <sodipodi:guide
       position="15,71.65"
       orientation="0,1"
       id="guide2274"
       inkscape:label=""
       inkscape:locked="false"
       inkscape:color="rgb(0,0,255)" />
    <sodipodi:guide
       position="15,63.15"
       orientation="0,1"
       id="guide2276"
       inkscape:label=""
       inkscape:locked="false"
       inkscape:color="rgb(0,0,255)" />
    <sodipodi:guide
       position="15,26.65"
       orientation="0,1"
       id="guide2278"
       inkscape:label=""
       inkscape:locked="false"
       inkscape:color="rgb(0,0,255)" />
    <sodipodi:guide
       position="15,-0.35000019"
       orientation="0,1"
       id="guide2280"
       inkscape:label=""
       inkscape:locked="false"
       inkscape:color="rgb(0,0,255)" />
    <sodipodi:guide
       position="100,180"
       orientation="-1,0"
       id="guide2282"
       inkscape:label=""
       inkscape:locked="false"
       inkscape:color="rgb(0,0,255)" />
    <sodipodi:guide
       position="200,180"
       orientation="-1,0"
       id="guide2284"
       inkscape:label=""
       inkscape:locked="false"
       inkscape:color="rgb(0,0,255)" />
    <sodipodi:guide
       position="15,18.15"
       orientation="0,1"
       id="guide2696"
       inkscape:label=""
       inkscape:locked="false"
       inkscape:color="rgb(0,0,255)" />
    <sodipodi:guide
       position="0,180"
       orientation="0,1"
       id="guide4214"
       inkscape:label=""
       inkscape:locked="false"
       inkscape:color="rgb(0,0,255)" />
    <sodipodi:guide
       position="0,180"
       orientation="1,0"
       id="guide4296" />
    <sodipodi:guide
       position="300,180"
       orientation="-1,0"
       id="guide4298"
       inkscape:label=""
       inkscape:locked="false"
       inkscape:color="rgb(0,0,255)" />
    <sodipodi:guide
       position="15,9.6500001"
       orientation="0,1"
       id="guide4557"
       inkscape:label=""
       inkscape:locked="false"
       inkscape:color="rgb(0,0,255)" />
  </sodipodi:namedview>
  <defs
     id="defs2084" />
  <g
     inkscape:label="Layer 1"
     inkscape:groupmode="layer"
     id="layer1">
    <path
       id="rect2308"
       style="stroke-width:0.264583;fill:none;stroke:#000000;stroke-opacity:1"
       d="m 4.25,18.350002 h 91.5 c 2.3545,0 4.25,1.8955 4.25,4.25 0,2.3545 -1.8955,4.25 -4.25,4.25 H 4.25 c -2.3545,0 -4.25,-1.8955 -4.25,-4.25 0,-2.3545 1.8955,-4.25 4.25,-4.25 z" />
    <path
       id="rect2308-4"
       style="stroke-width:0.264583;fill:none;stroke:#000000;stroke-opacity:1"
       d="m 204.25,18.350002 h 91.5 c 2.3545,0 4.25,1.8955 4.25,4.25 0,2.3545 -1.8955,4.25 -4.25,4.25 h -91.5 c -2.3545,0 -4.25,-1.8955 -4.25,-4.25 0,-2.3545 1.8955,-4.25 4.25,-4.25 z" />
    <path
       id="rect2308-0"
       style="stroke-width:0.264583;fill:none;stroke:#000000;stroke-opacity:1"
       d="M 4.2499971,63.350002 H 95.749997 c 2.3545,0 4.25,1.8955 4.25,4.25 0,2.3545 -1.8955,4.25 -4.25,4.25 H 4.2499971 c -2.3545,0 -4.2500000387306,-1.8955 -4.2500000387306,-4.25 0,-2.3545 1.8955000387306,-4.25 4.2500000387306,-4.25 z" />
    <path
       id="rect2308-5"
       style="stroke-width:0.264583;fill:none;stroke:#000000;stroke-opacity:1"
       d="m 204.25,63.350002 h 91.5 c 2.3545,0 4.25,1.8955 4.25,4.25 0,2.3545 -1.8955,4.25 -4.25,4.25 h -91.5 c -2.3545,0 -4.25,-1.8955 -4.25,-4.25 0,-2.3545 1.8955,-4.25 4.25,-4.25 z" />
    <path
       id="rect2308-41"
       style="stroke-width:0.264583;fill:none;stroke:#000000;stroke-opacity:1"
       d="m 4.249999,108.35 h 91.5 c 2.3545,0 4.25,1.8955 4.25,4.25 0,2.3545 -1.8955,4.25 -4.25,4.25 h -91.5 c -2.3545,0 -4.250000031382,-1.8955 -4.250000031382,-4.25 0,-2.3545 1.895500031382,-4.25 4.250000031382,-4.25 z" />
    <path
       id="rect2308-6"
       style="stroke-width:0.264583;fill:none;stroke:#000000;stroke-opacity:1"
       d="m 204.25,108.35 h 91.5 c 2.3545,0 4.25,1.8955 4.25,4.25 0,2.3545 -1.8955,4.25 -4.25,4.25 h -91.5 c -2.3545,0 -4.25,-1.8955 -4.25,-4.25 0,-2.3545 1.8955,-4.25 4.25,-4.25 z" />
    <path
       id="rect2308-8"
       style="stroke-width:0.264583;fill:none;stroke:#000000;stroke-opacity:1"
       d="M 4.2500066,153.35001 H 95.750007 c 2.3545,0 4.250003,1.8955 4.250003,4.25 0,2.3545 -1.895503,4.25 -4.250003,4.25 H 4.2500066 c -2.3545,0 -4.2500000019875,-1.8955 -4.2500000019875,-4.25 0,-2.3545 1.8955000019875,-4.25 4.2500000019875,-4.25 z" />
    <path
       id="rect2308-83"
       style="stroke-width:0.264583;fill:none;stroke:#000000;stroke-opacity:1"
       d="m 204.25,153.35001 h 91.5 c 2.3545,0 4.25,1.8955 4.25,4.25 0,2.3545 -1.8955,4.25 -4.25,4.25 h -91.5 c -2.3545,0 -4.25,-1.8955 -4.25,-4.25 0,-2.3545 1.8955,-4.25 4.25,-4.25 z" />
    <rect
       style="fill:none;stroke:#000000;stroke-width:0.264583;stroke-opacity:1"
       id="rect4583"
       width="300"
       height="170.35001"
       x="0"
       y="1.8564861e-06"
       ry="4.2500019" />
  </g>
</svg>
